<svg width="25" height="25" viewBox="0 0 25 25" fill="none" xmlns="http://www.w3.org/2000/svg">
<path fill-rule="evenodd" clip-rule="evenodd" d="M0 10.8374C0 4.85208 4.80043 0 10.7221 0C13.5657 0 16.2929 1.1418 18.3037 3.17421C20.3145 5.20661 21.4441 7.96315 21.4441 10.8374C21.4441 16.8228 16.6437 21.6748 10.7221 21.6748C4.80043 21.6748 0 16.8228 0 10.8374ZM21.2666 19.5679L24.5154 22.1456C25.1615 22.7986 25.1615 23.8573 24.5154 24.5103C23.8694 25.1633 22.8219 25.1633 22.1758 24.5103L19.5258 21.4731C19.2753 21.2208 19.1345 20.878 19.1345 20.5205C19.1345 20.163 19.2753 19.8202 19.5258 19.5679C20.009 19.088 20.7835 19.088 21.2666 19.5679Z" fill="black" fill-opacity="0.72"/>
</svg>
